<mxfile host="app.diagrams.net" modified="2020-09-11T18:52:46.198Z" agent="5.0 (X11)" etag="_45cxj_NpbMFP0DNB9Ft" version="13.6.10" type="github">
  <diagram id="pOonJXKXdqX5Wi59BkSP" name="Page-1">
    <mxGraphModel dx="1422" dy="1903" grid="1" gridSize="10" guides="1" tooltips="1" connect="1" arrows="1" fold="1" page="1" pageScale="1" pageWidth="850" pageHeight="1100" math="0" shadow="0">
      <root>
        <mxCell id="0" />
        <mxCell id="1" parent="0" />
        <mxCell id="PL5TwtShoDvxXe4F9321-24" value="&lt;font style=&quot;font-size: 18px&quot;&gt;Workloads&lt;/font&gt;" style="shape=umlFrame;whiteSpace=wrap;html=1;strokeWidth=2;fontFamily=Courier New;width=150;height=40;" vertex="1" parent="1">
          <mxGeometry x="390" y="-10" width="370" height="180" as="geometry" />
        </mxCell>
        <mxCell id="PL5TwtShoDvxXe4F9321-1" value="&lt;font style=&quot;font-size: 18px&quot;&gt;Driver&lt;/font&gt;" style="shape=umlFrame;whiteSpace=wrap;html=1;strokeWidth=2;fontFamily=Courier New;width=80;height=40;" vertex="1" parent="1">
          <mxGeometry x="40" y="170" width="720" height="490" as="geometry" />
        </mxCell>
        <mxCell id="PL5TwtShoDvxXe4F9321-26" style="orthogonalLoop=1;jettySize=auto;html=1;exitX=0.5;exitY=0;exitDx=0;exitDy=0;entryX=-0.003;entryY=0.5;entryDx=0;entryDy=0;entryPerimeter=0;shadow=0;endArrow=block;endFill=1;strokeColor=#000000;strokeWidth=2;fillColor=#ffffff;fontFamily=Courier New;fontSize=18;edgeStyle=orthogonalEdgeStyle;curved=1;shape=flexArrow;width=44;endSize=18.3;endWidth=29;" edge="1" parent="1" source="PL5TwtShoDvxXe4F9321-3" target="PL5TwtShoDvxXe4F9321-24">
          <mxGeometry relative="1" as="geometry">
            <Array as="points">
              <mxPoint x="245" y="80" />
            </Array>
          </mxGeometry>
        </mxCell>
        <mxCell id="PL5TwtShoDvxXe4F9321-3" value="Workload Generator" style="rounded=0;whiteSpace=wrap;html=1;strokeWidth=2;fontFamily=Courier New;fontSize=18;" vertex="1" parent="1">
          <mxGeometry x="120" y="230" width="250" height="60" as="geometry" />
        </mxCell>
        <mxCell id="PL5TwtShoDvxXe4F9321-5" value="Key Chooser / Request Distibution" style="rounded=0;whiteSpace=wrap;html=1;strokeWidth=2;fontFamily=Courier New;fontSize=18;" vertex="1" parent="1">
          <mxGeometry x="305" y="730" width="245" height="60" as="geometry" />
        </mxCell>
        <mxCell id="PL5TwtShoDvxXe4F9321-6" value="Zipfian" style="rounded=0;whiteSpace=wrap;html=1;strokeWidth=2;fontFamily=Courier New;fontSize=18;" vertex="1" parent="1">
          <mxGeometry x="550" y="790" width="130" height="60" as="geometry" />
        </mxCell>
        <mxCell id="PL5TwtShoDvxXe4F9321-7" value="Uniform" style="rounded=0;whiteSpace=wrap;html=1;strokeWidth=2;fontFamily=Courier New;fontSize=18;" vertex="1" parent="1">
          <mxGeometry x="670" y="790" width="130" height="60" as="geometry" />
        </mxCell>
        <mxCell id="PL5TwtShoDvxXe4F9321-8" value="Latest" style="rounded=0;whiteSpace=wrap;html=1;strokeWidth=2;fontFamily=Courier New;fontSize=18;" vertex="1" parent="1">
          <mxGeometry x="610" y="850" width="130" height="60" as="geometry" />
        </mxCell>
        <mxCell id="PL5TwtShoDvxXe4F9321-9" value="Distribution Generator" style="rounded=0;whiteSpace=wrap;html=1;strokeWidth=2;fontFamily=Courier New;fontSize=18;" vertex="1" parent="1">
          <mxGeometry x="550" y="730" width="250" height="60" as="geometry" />
        </mxCell>
        <mxCell id="PL5TwtShoDvxXe4F9321-14" value="" style="group" vertex="1" connectable="0" parent="1">
          <mxGeometry x="420" y="230" width="302.5" height="390" as="geometry" />
        </mxCell>
        <mxCell id="PL5TwtShoDvxXe4F9321-10" value="Status Thread" style="rounded=0;whiteSpace=wrap;html=1;strokeWidth=2;fontFamily=Courier New;fontSize=18;" vertex="1" parent="PL5TwtShoDvxXe4F9321-14">
          <mxGeometry x="28.75" y="70" width="245" height="60" as="geometry" />
        </mxCell>
        <mxCell id="PL5TwtShoDvxXe4F9321-11" value="Delegate Client" style="rounded=0;whiteSpace=wrap;html=1;strokeWidth=2;fontFamily=Courier New;fontSize=18;" vertex="1" parent="PL5TwtShoDvxXe4F9321-14">
          <mxGeometry x="38.75" y="300" width="245" height="60" as="geometry" />
        </mxCell>
        <mxCell id="PL5TwtShoDvxXe4F9321-12" value="Delegate Client Thread" style="rounded=0;whiteSpace=wrap;html=1;strokeWidth=2;fontFamily=Courier New;fontSize=18;" vertex="1" parent="PL5TwtShoDvxXe4F9321-14">
          <mxGeometry x="28.75" y="310" width="245" height="60" as="geometry" />
        </mxCell>
        <mxCell id="PL5TwtShoDvxXe4F9321-13" value="&lt;font style=&quot;font-size: 18px&quot;&gt;Threads&lt;/font&gt;" style="shape=umlFrame;whiteSpace=wrap;html=1;strokeWidth=2;fontFamily=Courier New;width=99;height=40;" vertex="1" parent="PL5TwtShoDvxXe4F9321-14">
          <mxGeometry width="302.5" height="390" as="geometry" />
        </mxCell>
      </root>
    </mxGraphModel>
  </diagram>
</mxfile>
